<?xml version="1.0" standalone="no"?>
<!DOCTYPE svg PUBLIC "-//W3C//DTD SVG 20010904//EN"
 "http://www.w3.org/TR/2001/REC-SVG-20010904/DTD/svg10.dtd">
<svg version="1.0" xmlns="http://www.w3.org/2000/svg"
 width="1280.000000pt" height="1006.000000pt" viewBox="0 0 1280.000000 1006.000000"
 preserveAspectRatio="xMidYMid meet">
<metadata>
Created by potrace 1.15, written by Peter Selinger 2001-2017
</metadata>
<g transform="translate(0.000000,1006.000000) scale(0.100000,-0.100000)"
fill="#ffc107" stroke="none">
<path d="M2855 10054 c-276 -28 -392 -47 -590 -99 -853 -222 -1563 -798 -1958
-1590 -299 -600 -385 -1335 -232 -1975 76 -316 165 -524 413 -970 269 -484
315 -559 787 -1285 111 -170 256 -395 322 -500 768 -1214 1218 -2270 1474
-3459 15 -68 18 -62 44 64 104 524 325 1206 568 1755 302 682 612 1227 1260
2214 450 688 566 882 791 1331 253 502 304 636 370 960 69 340 65 774 -10
1150 -115 575 -417 1120 -860 1551 -471 457 -1078 743 -1774 834 -118 15 -516
28 -605 19z"/>
</g>
</svg>
